# xmcd
# Track frame offsets:
# 150
# 16257
# 32117
# 47051
# 65092
# 82163
# 96177
# 110422
# 126276
# 140738
# 155211
# 171252
# 187994
# 201583
#
# Disc length: 2847 seconds
# Revision: 0
# Processed by: cddbd v1.5.1PL2 Copyright (c) Steve Scherf et al.
# Submitted via: VisiTrax 2.9.10.228 - For more info visit www.synapsa.com
#
DISCID=d30b1d0e
DTITLE=Randy Archer - Shots in the dark
DYEAR=2006
DGENRE=Country
TTITLE0=Just as crazy
TTITLE1=That's not gonna bring her home
TTITLE2=I own this barstool
TTITLE3=She don't need a band to dance
TTITLE4=Look what your leavin' left behind
TTITLE5=Friends don't let friends drive (themselves crazy)
TTITLE6=Shots in the dark
TTITLE7=This bus
TTITLE8=Three sheets in the wind
TTITLE9=What's not there
TTITLE10=I'm just a place to fall
TTITLE11=A different piece of cloth
TTITLE12=Let me drink about it
TTITLE13=There's no "s" on my chest
EXTD=
EXTT0=
EXTT1=
EXTT2=
EXTT3=
EXTT4=
EXTT5=
EXTT6=
EXTT7=
EXTT8=
EXTT9=
EXTT10=
EXTT11=
EXTT12=
EXTT13=
PLAYORDER=
